<?xml version="1.0" encoding="UTF-8"?>
<svg xmlns="http://www.w3.org/2000/svg" xmlns:xlink="http://www.w3.org/1999/xlink" width="16pt" height="16pt" viewBox="0 0 16 16" version="1.1">
<g id="surface1">
<path style=" stroke:none;fill-rule:nonzero;fill:rgb(0%,0%,0%);fill-opacity:1;" d="M 3.394531 10.476562 C 3.394531 10.472656 3.390625 10.46875 3.390625 10.46875 C 3.347656 10.367188 3.25 10.300781 3.140625 10.300781 C 3.027344 10.300781 2.929688 10.367188 2.890625 10.46875 C 2.886719 10.472656 2.886719 10.472656 2.886719 10.472656 L 2.269531 12.089844 C 2.226562 12.210938 2.285156 12.347656 2.40625 12.394531 C 2.527344 12.441406 2.664062 12.378906 2.707031 12.257812 L 2.804688 12.007812 L 3.472656 12.007812 C 3.535156 12.15625 3.5625 12.390625 3.785156 12.410156 C 3.8125 12.410156 3.839844 12.402344 3.867188 12.394531 C 3.988281 12.347656 4.050781 12.214844 4.003906 12.09375 Z M 2.984375 11.539062 L 3.140625 11.128906 L 3.292969 11.539062 Z M 2.984375 11.539062 "/>
<path style=" stroke:none;fill-rule:nonzero;fill:rgb(0%,0%,0%);fill-opacity:1;" d="M 7.90625 2.183594 L 7.429688 2.183594 C 7.296875 2.183594 7.195312 2.289062 7.195312 2.417969 L 7.195312 4.058594 C 7.195312 4.121094 7.21875 4.183594 7.261719 4.226562 C 7.308594 4.269531 7.367188 4.292969 7.429688 4.292969 C 7.429688 4.292969 7.867188 4.292969 7.988281 4.292969 C 8.359375 4.292969 8.664062 3.988281 8.664062 3.617188 C 8.664062 3.414062 8.574219 3.230469 8.429688 3.105469 C 8.484375 3.015625 8.515625 2.910156 8.515625 2.796875 C 8.515625 2.460938 8.242188 2.183594 7.90625 2.183594 Z M 7.90625 2.652344 C 7.984375 2.652344 8.046875 2.71875 8.046875 2.796875 C 8.046875 2.875 7.984375 2.941406 7.90625 2.941406 C 7.871094 2.941406 7.664062 2.941406 7.664062 2.941406 L 7.664062 2.652344 Z M 7.988281 3.824219 C 7.925781 3.824219 7.789062 3.824219 7.664062 3.824219 L 7.664062 3.410156 C 7.6875 3.410156 7.988281 3.410156 7.988281 3.410156 C 8.101562 3.410156 8.195312 3.503906 8.195312 3.617188 C 8.195312 3.730469 8.101562 3.824219 7.988281 3.824219 Z M 7.988281 3.824219 "/>
<path style=" stroke:none;fill-rule:nonzero;fill:rgb(0%,0%,0%);fill-opacity:1;" d="M 13.574219 11.738281 C 13.332031 11.554688 13.207031 11.925781 12.90625 11.914062 C 12.585938 11.914062 12.324219 11.652344 12.324219 11.332031 C 12.324219 11.007812 12.585938 10.746094 12.90625 10.746094 C 13.027344 10.746094 13.140625 10.777344 13.234375 10.84375 C 13.34375 10.917969 13.488281 10.890625 13.5625 10.78125 C 13.632812 10.675781 13.605469 10.527344 13.496094 10.457031 C 13.324219 10.339844 13.121094 10.277344 12.90625 10.277344 C 12.328125 10.277344 11.855469 10.75 11.855469 11.332031 C 11.855469 11.910156 12.328125 12.382812 12.90625 12.382812 C 13.140625 12.382812 13.351562 12.308594 13.515625 12.164062 C 13.621094 12.089844 13.730469 11.882812 13.574219 11.738281 Z M 13.574219 11.738281 "/>
<path style=" stroke:none;fill-rule:nonzero;fill:rgb(0%,0%,0%);fill-opacity:1;" d="M 13.382812 5.957031 C 13.402344 5.777344 13.410156 5.59375 13.410156 5.410156 C 13.410156 2.425781 10.984375 0 8 0 C 6.632812 0 5.328125 0.511719 4.328125 1.4375 C 3.332031 2.359375 2.71875 3.609375 2.609375 4.957031 C 2.597656 5.085938 2.691406 5.199219 2.820312 5.210938 C 2.949219 5.21875 3.0625 5.125 3.074219 4.996094 C 3.175781 3.765625 3.734375 2.625 4.644531 1.78125 C 5.5625 0.933594 6.753906 0.46875 8 0.46875 C 10.726562 0.46875 12.941406 2.6875 12.941406 5.410156 C 12.941406 5.511719 12.9375 5.613281 12.933594 5.710938 C 12.222656 5.371094 11.429688 5.175781 10.589844 5.175781 C 9.652344 5.175781 8.769531 5.417969 8 5.839844 C 7.226562 5.414062 6.34375 5.175781 5.410156 5.175781 C 4.460938 5.175781 3.511719 5.4375 2.726562 5.890625 C 1.097656 6.828125 0 8.582031 0 10.589844 C 0 13.574219 2.425781 16 5.410156 16 C 6.324219 16 7.210938 15.769531 8 15.339844 C 8.789062 15.773438 9.683594 16 10.589844 16 C 13.574219 16 16 13.574219 16 10.589844 C 16 8.625 14.949219 6.90625 13.382812 5.957031 Z M 10.589844 5.644531 C 11.414062 5.644531 12.191406 5.851562 12.878906 6.210938 C 12.652344 7.597656 11.847656 8.789062 10.71875 9.535156 C 10.667969 9.261719 10.589844 8.992188 10.496094 8.734375 C 10.164062 7.824219 9.570312 6.984375 8.78125 6.359375 C 8.679688 6.277344 8.574219 6.199219 8.464844 6.125 C 9.109375 5.816406 9.828125 5.644531 10.589844 5.644531 Z M 8 10.355469 C 7.925781 10.355469 7.847656 10.351562 7.773438 10.347656 L 9.804688 8.320312 C 9.875 8.457031 9.941406 8.597656 10 8.742188 L 8.40625 10.335938 C 8.269531 10.347656 8.136719 10.355469 8 10.355469 Z M 6.667969 10.171875 L 9.300781 7.539062 C 9.390625 7.65625 9.476562 7.777344 9.558594 7.902344 L 7.175781 10.285156 C 7.003906 10.253906 6.832031 10.21875 6.667969 10.171875 Z M 5.746094 9.808594 L 8.675781 6.878906 C 8.785156 6.976562 8.890625 7.078125 8.992188 7.183594 L 6.171875 10.003906 C 6.027344 9.945312 5.886719 9.878906 5.746094 9.808594 Z M 5.914062 8.976562 C 6.292969 7.890625 7.035156 6.976562 8 6.378906 C 8.105469 6.445312 8.207031 6.511719 8.308594 6.585938 Z M 10.167969 9.238281 C 10.21875 9.417969 10.257812 9.601562 10.289062 9.789062 C 9.949219 9.96875 9.582031 10.109375 9.199219 10.207031 Z M 7.53125 6.125 C 6.386719 6.910156 5.558594 8.125 5.28125 9.535156 C 4.15625 8.792969 3.347656 7.605469 3.121094 6.210938 C 3.808594 5.851562 4.585938 5.644531 5.410156 5.644531 C 6.167969 5.644531 6.886719 5.816406 7.53125 6.125 Z M 10.589844 15.53125 C 9.851562 15.53125 9.128906 15.367188 8.46875 15.054688 C 8.679688 14.910156 8.878906 14.75 9.070312 14.574219 C 10.066406 13.664062 10.679688 12.421875 10.800781 11.082031 C 10.8125 10.953125 10.71875 10.839844 10.589844 10.828125 C 10.460938 10.816406 10.34375 10.910156 10.332031 11.039062 C 10.222656 12.261719 9.660156 13.394531 8.753906 14.230469 C 7.839844 15.070312 6.652344 15.53125 5.410156 15.53125 C 2.6875 15.53125 0.46875 13.3125 0.46875 10.589844 C 0.46875 8.867188 1.351562 7.347656 2.691406 6.464844 C 2.992188 7.988281 3.929688 9.273438 5.203125 10.042969 C 5.1875 10.222656 5.175781 10.402344 5.175781 10.589844 C 5.175781 12.082031 5.804688 13.527344 6.898438 14.546875 C 6.992188 14.632812 7.140625 14.628906 7.230469 14.535156 C 7.316406 14.441406 7.3125 14.292969 7.21875 14.203125 C 6.21875 13.269531 5.644531 11.953125 5.644531 10.589844 C 5.644531 10.488281 5.648438 10.386719 5.65625 10.285156 C 5.804688 10.359375 5.960938 10.425781 6.117188 10.484375 C 6.859375 10.761719 7.703125 10.878906 8.53125 10.796875 C 9.28125 10.722656 10.046875 10.476562 10.6875 10.109375 C 12.023438 9.339844 13 8.019531 13.308594 6.464844 C 14.648438 7.347656 15.53125 8.867188 15.53125 10.589844 C 15.53125 13.3125 13.3125 15.53125 10.589844 15.53125 Z M 10.589844 15.53125 "/>
</g>
</svg>
